<?xml version="1.0" encoding="UTF-8"?>
<svg version="1.1" xmlns="http://www.w3.org/2000/svg" width="1024" height="1024">
<path d="M0 0 C10.02887836 5.41081266 17.98320436 12.52556833 25.0625 21.4375 C25.0625 22.0975 25.0625 22.7575 25.0625 23.4375 C26.35285156 23.27507812 27.64320313 23.11265625 28.97265625 22.9453125 C33.82960406 22.40765702 38.61707807 22.28463455 43.5 22.3125 C44.32604736 22.31443359 45.15209473 22.31636719 46.00317383 22.31835938 C51.74640957 22.35904746 57.3629477 22.69001773 63.0625 23.4375 C63.32804688 22.85484375 63.59359375 22.2721875 63.8671875 21.671875 C65.96311645 17.75399475 69.06233458 14.68522327 72.0625 11.4375 C73.03123047 10.38755859 73.03123047 10.38755859 74.01953125 9.31640625 C80.37341435 2.68681225 86.12628691 -2.23321576 95.61328125 -2.68359375 C101.73961226 -2.380697 105.61898644 -0.39811633 109.8125 4.0625 C120.61344785 17.58823242 120.63887024 34.9346634 121.0625 51.4375 C122.11566406 50.96699219 123.16882813 50.49648437 124.25390625 50.01171875 C144.20818864 41.3019788 166.98411587 37.02415684 187.95117188 45.17138672 C198.85870629 49.66475882 206.93407001 55.99609741 215.0625 64.4375 C215.77535156 65.14261719 216.48820312 65.84773438 217.22265625 66.57421875 C232.32888885 82.36286843 247.68571158 107.89832927 248.1171875 130.2734375 C248.09914063 130.98757813 248.08109375 131.70171875 248.0625 132.4375 C265.69876401 125.91652843 283.44568541 118.27535702 292.0625 100.4375 C296.93253301 88.96482609 297.52187405 78.99380513 296.70141602 66.66162109 C294.33329767 30.87764652 294.33329767 30.87764652 303.125 20.4375 C307.51037456 16.48316653 312.25428884 15.49350204 318.0625 15.4375 C326.62184384 16.46007648 332.16233459 20.96405727 337.68359375 27.296875 C339.36087237 29.90069564 339.98373808 32.23774433 340.6875 35.25 C340.92726563 36.24644531 341.16703125 37.24289063 341.4140625 38.26953125 C346.51251266 63.1782245 344.58587022 92.23685338 334.0625 115.4375 C333.40121094 116.95730469 333.40121094 116.95730469 332.7265625 118.5078125 C322.36999539 140.8802862 299.91640363 159.61400587 277.0625 168.4375 C267.45063702 171.67633776 257.74136016 174.32504533 247.625 175.1875 C243.90626343 175.6468446 242.4681279 176.06194336 239.69140625 178.6328125 C236.21530777 183.08033653 236.21530777 183.08033653 235.0703125 188.43359375 C236.54880664 191.41968625 238.89874648 193.39820073 241.3125 195.625 C255.59120161 209.46138394 265.59449153 226.07784923 275.0625 243.4375 C275.41425293 244.08138672 275.76600586 244.72527344 276.12841797 245.38867188 C284.92295536 261.87904813 289.94461335 281.09549104 293.0625 299.4375 C293.39894531 301.27441406 293.39894531 301.27441406 293.7421875 303.1484375 C299.27861355 338.71807884 292.75636706 374.33845034 277.0625 406.4375 C276.74023438 407.10120605 276.41796875 407.76491211 276.0859375 408.44873047 C269.43042265 421.97958155 260.69263362 433.86922628 251.0625 445.4375 C250.47855469 446.14519531 249.89460938 446.85289062 249.29296875 447.58203125 C239.2692747 459.41587321 225.78157898 471.82349071 209.87109375 473.6953125 C203.8191671 474.01106519 199.36285868 472.24430933 194.0625 469.4375 C194.0625 468.7775 194.0625 468.1175 194.0625 467.4375 C193.4025 467.4375 192.7425 467.4375 192.0625 467.4375 C190.4375 465.9375 190.4375 465.9375 189.0625 464.4375 C187.96292969 464.98019531 186.86335938 465.52289062 185.73046875 466.08203125 C184.23803475 466.80686498 182.74446673 467.52936667 181.25 468.25 C180.47696533 468.62382813 179.70393066 468.99765625 178.9074707 469.3828125 C174.54783955 471.43803477 170.50033856 472.97581461 165.75 473.9375 C162.35043205 474.75413423 162.35043205 474.75413423 159.68359375 476.859375 C158.51414245 479.00566209 157.80471855 481.10630651 157.0625 483.4375 C156.63324219 484.53707031 156.20398438 485.63664062 155.76171875 486.76953125 C151.96972189 496.9705369 150.96528602 506.25862112 151.11328125 517.1875 C151.0625 520.4375 151.0625 520.4375 150.0625 523.4375 C151.3 523.1075 152.5375 522.7775 153.8125 522.4375 C160.57786352 520.9602529 167.80526855 519.96855248 174.25 522.875 C178.21501407 528.48070955 177.18329488 534.50452346 176.125 541 C175.78288174 542.81481277 175.43292133 544.628252 175.0625 546.4375 C176.3 546.664375 177.5375 546.89125 178.8125 547.125 C207.01146458 553.57173063 230.99636563 577.21932507 248.0625 599.4375 C248.78695313 600.36820313 249.51140625 601.29890625 250.2578125 602.2578125 C263.12902643 619.07560073 274.62065187 637.06058699 283.18408203 656.45703125 C284.1269164 658.58273231 285.09148816 660.69773776 286.05859375 662.8125 C289.80547177 671.05296799 293.2588731 679.33001665 296.359375 687.8359375 C297.69492441 691.48632876 299.09729048 695.10754962 300.515625 698.7265625 C312.60204639 729.59629661 312.60204639 729.59629661 312.0625 738.4375 C309.79779412 743.06985294 309.79779412 743.06985294 307.0625 744.4375 C306.92218434 747.35952417 306.92218434 747.35952417 308.0625 750.4375 C310.02809242 751.48199642 311.90016673 752.05299448 314.0546875 752.6015625 C316.8476222 753.76437967 317.49545379 754.80523578 319.0625 757.4375 C320.03722497 760.58894747 320.67915247 763.79596588 321.33203125 767.02734375 C321.5335228 767.98592789 321.73501434 768.94451202 321.94261169 769.93214417 C322.59900154 773.07736985 323.23829245 776.22573466 323.875 779.375 C324.20739685 780.99921875 324.20739685 780.99921875 324.54650879 782.65625 C330.35721522 811.08230546 334.80503429 839.53095071 338.4375 868.3125 C338.57128052 869.36945068 338.70506104 870.42640137 338.84289551 871.51538086 C339.22141949 874.52779601 339.59276053 877.54099191 339.9609375 880.5546875 C340.07309601 881.45093842 340.18525452 882.34718933 340.30081177 883.27059937 C340.40183197 884.11313263 340.50285217 884.95566589 340.60693359 885.82373047 C340.69542572 886.54930145 340.78391785 887.27487244 340.87509155 888.02243042 C341.11794493 891.1520001 341.0625 894.2985218 341.0625 897.4375 C172.4325 897.4375 3.8025 897.4375 -169.9375 897.4375 C-133.48353189 662.14370583 -133.48353189 662.14370583 -74.41650391 601.95605469 C-72.82053239 600.3174045 -71.26062505 598.64814775 -69.69921875 596.9765625 C-60.63509395 587.42711449 -50.67710625 579.57014059 -39.046875 573.34375 C-35.64327858 571.68858661 -35.64327858 571.68858661 -34.625 568.0625 C-32.08503203 562.6062725 -28.14048153 561.18534329 -22.9375 558.4375 C-21.37449869 557.57095318 -19.81346293 556.70085602 -18.25390625 555.828125 C-10.13465361 551.29754795 -1.98900067 546.87193613 6.36328125 542.78515625 C11.00262092 540.46884339 15.52445889 537.94536482 20.0625 535.4375 C20.0625 527.5175 20.0625 519.5975 20.0625 511.4375 C17.443125 511.64375 14.82375 511.85 12.125 512.0625 C-22.83619925 514.11867846 -60.88045958 506.3400986 -87.62866211 482.58129883 C-102.42729996 468.86322774 -110.73477878 452.43032853 -116.9375 433.4375 C-117.27910156 432.47714844 -117.62070312 431.51679687 -117.97265625 430.52734375 C-122.60735062 415.68506339 -122.59885997 399.8353313 -122.9375 384.4375 C-123.49655029 384.70957275 -124.05560059 384.98164551 -124.6315918 385.26196289 C-135.18639234 390.20636382 -146.16116314 391.91589126 -157.44921875 388.41796875 C-163.33160934 386.1001037 -167.56059098 382.80082608 -170.9375 377.4375 C-171.6947328 372.98697138 -171.57424102 369.01062487 -169.875 364.8125 C-168.73682297 363.41731525 -167.57337111 362.0410041 -166.35546875 360.71484375 C-154.94996677 348.21600388 -153.58943908 335.49581582 -153.8828125 319.03125 C-153.89676128 317.65760726 -153.90916865 316.28394811 -153.9201355 314.91027832 C-153.96834365 309.14331817 -154.03906443 303.37680332 -154.12939453 297.61035156 C-154.37261398 281.50161341 -154.49193477 266.04364805 -149.9375 250.4375 C-149.65471191 249.4283252 -149.37192383 248.41915039 -149.08056641 247.37939453 C-148.35631363 244.96747485 -147.55700868 242.61288008 -146.6875 240.25 C-146.39157959 239.42741699 -146.09565918 238.60483398 -145.79077148 237.75732422 C-142.7922928 229.65650084 -139.07605743 222.00967397 -134.9375 214.4375 C-134.60073242 213.81617188 -134.26396484 213.19484375 -133.91699219 212.5546875 C-129.7127542 204.84758968 -125.15944663 197.50366578 -119.9375 190.4375 C-119.50421387 189.84179199 -119.07092773 189.24608398 -118.62451172 188.63232422 C-112.72557538 180.52653403 -106.69824111 172.75904803 -99.80078125 165.4765625 C-97.89198232 163.57414568 -97.89198232 163.57414568 -96.9375 161.4375 C-96.2775 161.4375 -95.6175 161.4375 -94.9375 161.4375 C-94.61072266 160.62345703 -94.61072266 160.62345703 -94.27734375 159.79296875 C-92.48406246 156.64034888 -90.06650799 154.2705479 -87.5 151.75 C-86.69973389 150.95770996 -86.69973389 150.95770996 -85.88330078 150.14941406 C-80.8421352 145.2259005 -75.4656704 140.80270714 -69.9375 136.4375 C-68.74060547 135.42236328 -68.74060547 135.42236328 -67.51953125 134.38671875 C-62.16967578 129.89214197 -56.62855219 126.35193953 -50.49487305 123.05053711 C-47.12394765 121.36676792 -47.12394765 121.36676792 -44.9375 118.4375 C-45.36466858 117.04546814 -45.85615596 115.67302437 -46.375 114.3125 C-51.09750191 99.11741285 -47.27660906 83.61278904 -40.22607422 69.86645508 C-34.95794308 59.90803083 -34.95794308 59.90803083 -32.30517578 56.08520508 C-30.61348743 52.81023897 -30.62203812 50.62850613 -30.71484375 46.95703125 C-30.73353516 45.70986328 -30.75222656 44.46269531 -30.77148438 43.17773438 C-30.80564453 41.88158203 -30.83980469 40.58542969 -30.875 39.25 C-31.5063684 12.63849367 -31.5063684 12.63849367 -22.16015625 2.51171875 C-15.05530992 -3.78200347 -8.42383489 -4.04000245 0 0 Z " fill="#8CC54C" transform="translate(432.9375,126.5625)"/>
<path d="M0 0 C14.53567379 2.07652483 27.06627389 10.64663418 38 20 C38.75724365 20.63977783 38.75724365 20.63977783 39.52978516 21.29248047 C47.91218111 28.44240858 55.06150464 36.46309519 62 45 C62.43022461 45.52287598 62.86044922 46.04575195 63.30371094 46.58447266 C70.59275813 55.49235977 76.70146852 65.07349119 82.70019531 74.88183594 C83.76105083 76.610608 84.84244363 78.32676345 85.9296875 80.0390625 C96.57744956 97.30983446 103.72463016 116.80655829 110.78271484 135.7421875 C112.01549005 139.04145592 113.26539289 142.33379859 114.51953125 145.625 C115.32593584 147.74984254 116.13194107 149.87483671 116.9375 152 C117.30311035 152.96035156 117.6687207 153.92070313 118.04541016 154.91015625 C123.24261081 168.73048226 123.24261081 168.73048226 124.39428711 175.22265625 C124.69411499 176.10244141 124.69411499 176.10244141 125 177 C127.88211302 177.96070434 129.69850044 178.10581883 132.6875 178.0625 C133.49574219 178.05347656 134.30398438 178.04445313 135.13671875 178.03515625 C135.75160156 178.02355469 136.36648438 178.01195312 137 178 C137.33 180.31 137.66 182.62 138 185 C138.54269531 185.17015625 139.08539062 185.3403125 139.64453125 185.515625 C140.35996094 185.75796875 141.07539062 186.0003125 141.8125 186.25 C142.87404297 186.59804688 142.87404297 186.59804688 143.95703125 186.953125 C146.65181298 188.33400742 147.42672195 189.3671311 149 192 C149.97489331 195.15138165 150.61665615 198.35848409 151.26953125 201.58984375 C151.57176857 203.02771996 151.57176857 203.02771996 151.88011169 204.49464417 C152.53650154 207.63986985 153.17579245 210.78823466 153.8125 213.9375 C154.0340979 215.0203125 154.2556958 216.103125 154.48400879 217.21875 C160.29471522 245.64480546 164.74253429 274.09345071 168.375 302.875 C168.50878052 303.93195068 168.64256104 304.98890137 168.78039551 306.07788086 C169.15891949 309.09029601 169.53026053 312.10349191 169.8984375 315.1171875 C170.01059601 316.01343842 170.12275452 316.90968933 170.23831177 317.83309937 C170.38984207 319.09689926 170.38984207 319.09689926 170.54443359 320.38623047 C170.63292572 321.11180145 170.72141785 321.83737244 170.81259155 322.58493042 C171.05544493 325.7145001 171 328.8610218 171 332 C65.73 332 -39.54 332 -148 332 C-148 322.51097258 -147.97713879 313.19977925 -147.4140625 303.7578125 C-147.35221771 302.66572479 -147.29037292 301.57363708 -147.22665405 300.44845581 C-147.09597308 298.15789565 -146.96311636 295.86745862 -146.828125 293.57714844 C-146.62743017 290.16630126 -146.43422335 286.75509446 -146.2421875 283.34375 C-145.5316783 270.91988686 -144.67904721 258.5147613 -143.69654846 246.10952759 C-143.05635588 237.95389329 -142.56006752 229.80066475 -142.16601562 221.62988281 C-141.431071 206.50805038 -140.41846171 191.41490791 -139.30151367 176.31704712 C-138.4137479 164.27843424 -137.66105817 152.24376404 -137.0625 140.1875 C-135.86514574 116.09303247 -133.88769984 92.04829701 -132 68 C-129.60818312 72.48357171 -128.70413724 77.22014125 -127.67578125 82.15625 C-126.67451554 86.51948919 -125.86662453 89.54986168 -122 92 C-114.16677007 93.27369592 -107.06938767 89.92770961 -99.8125 87.25 C-98.4420466 86.75330427 -97.07152129 86.25680691 -95.70092773 85.76049805 C-76.07327294 78.59798606 -56.37260364 71.00085075 -38 61 C-37.05640625 60.49210938 -36.1128125 59.98421875 -35.140625 59.4609375 C-17.08611477 49.23004837 -10.16174904 33.43580012 -4.78686523 14.13842773 C-3.43757333 9.3115204 -1.81296186 4.67387855 0 0 Z " fill="#FEFEFE" transform="translate(603,692)"/>
<path d="M0 0 C9.9847624 3.52403379 17.48724428 10.60018549 22.375 19.875 C28.52543959 33.19538139 27.57490541 45.65505298 24.5 59.6875 C21.38701098 74.98428907 18.9389208 90.58849285 27.6484375 104.6640625 C33.56907343 112.60133425 40.57663115 117.86492831 50.5546875 119.390625 C57.99257995 119.71501906 63.78949036 117.72283729 69.46875 112.90625 C71.16014994 111.34013894 72.84764234 109.76979744 74.53125 108.1953125 C80.29279439 103.07191385 85.72287163 100.06822011 93.578125 100.51953125 C99.29147971 101.6529871 103.37736754 104.86888949 106.9375 109.375 C109.17880821 112.87234334 109.78731123 115.81712077 110 120 C110.11021484 121.04027344 110.11021484 121.04027344 110.22265625 122.1015625 C111.2125811 137.28041026 103.50935342 150.26343708 93.9921875 161.3359375 C82.08944392 173.91333051 65.99525526 181.31974806 49.5234375 185.796875 C44.24679853 187.59865416 40.54402878 189.60645358 37.8046875 194.5390625 C37.14356962 195.89244868 36.50085977 197.25495235 35.875 198.625 C35.5351709 199.33849609 35.1953418 200.05199219 34.84521484 200.78710938 C28.96950884 213.25500209 25.64695069 223.81152762 25.6875 237.6875 C25.67138672 238.80189453 25.65527344 239.91628906 25.63867188 241.06445312 C25.63770508 242.67803711 25.63770508 242.67803711 25.63671875 244.32421875 C25.63373779 245.29447998 25.63075684 246.26474121 25.62768555 247.2644043 C26.19561778 251.43730968 28.06382514 254.06382514 31 257 C29.89881836 257.52787109 29.89881836 257.52787109 28.77539062 258.06640625 C25.96417597 259.41480351 23.15354478 260.76440844 20.34326172 262.11474609 C18.5639017 262.96931026 16.78391546 263.82257013 15.00390625 264.67578125 C8.7320163 267.69044659 2.48606517 270.7477554 -3.73046875 273.875 C-11.90058549 277.97939581 -20.13700055 281.93811589 -28.39868164 285.85449219 C-30.80230965 286.99516404 -33.20291941 288.14202663 -35.60351562 289.2890625 C-43.7653554 293.17388172 -51.97328798 296.95503822 -60.26171875 300.5625 C-61.03506058 300.90933838 -61.8084024 301.25617676 -62.60517883 301.61352539 C-68.47069751 304.12038581 -73.19182616 305.04006439 -79.375 302.75 C-82 301 -82 301 -82.79248047 299.19335938 C-83.06825308 296.27860511 -82.25283373 294.76423295 -80.9453125 292.15625 C-80.49542969 291.23972656 -80.04554688 290.32320312 -79.58203125 289.37890625 C-79.10121094 288.42886719 -78.62039063 287.47882813 -78.125 286.5 C-77.18691753 284.61616681 -76.25189669 282.73080515 -75.3203125 280.84375 C-74.90023926 280.01037109 -74.48016602 279.17699219 -74.04736328 278.31835938 C-73.09330726 276.20653746 -72.47305158 274.26179818 -72 272 C-72.66 271.67 -73.32 271.34 -74 271 C-73.030625 270.38125 -72.06125 269.7625 -71.0625 269.125 C-67.97164638 267.34321154 -67.97164638 267.34321154 -67 265 C-66.8731468 263.6639994 -66.80260872 262.32238004 -66.76293945 260.98095703 C-66.73653885 260.15314728 -66.71013824 259.32533752 -66.68293762 258.47244263 C-66.65995102 257.57661469 -66.63696442 256.68078674 -66.61328125 255.7578125 C-66.57499458 254.37793655 -66.57499458 254.37793655 -66.53593445 252.97018433 C-66.48387932 251.02169352 -66.43445804 249.07313085 -66.38745117 247.12451172 C-66.31296949 244.14378866 -66.22228248 241.16383903 -66.13085938 238.18359375 C-66.08233444 236.29169202 -66.03477655 234.39976519 -65.98828125 232.5078125 C-65.95922195 231.61603302 -65.93016266 230.72425354 -65.90022278 229.80545044 C-65.88327866 228.97133636 -65.86633453 228.13722229 -65.84887695 227.27783203 C-65.82968704 226.5466214 -65.81049713 225.81541077 -65.79072571 225.06204224 C-66.03662969 222.63907665 -66.74945515 221.07791062 -68 219 C-70.66210394 216.84983913 -72.16421746 217.00849401 -75.625 217.1875 C-78.70584687 217.65085656 -81.43952289 218.4890201 -84.3671875 219.53515625 C-91.03377042 221.56756116 -97.58726235 221.36473423 -104.5 221.25 C-105.77359375 221.24484375 -107.0471875 221.2396875 -108.359375 221.234375 C-117.69007035 221.15496483 -117.69007035 221.15496483 -120 220 C-122.05769762 219.67618492 -124.12154877 219.39112253 -126.1875 219.125 C-146.84921431 216.23066988 -165.08103452 211.04789305 -181 197 C-181 196.34 -181 195.68 -181 195 C-181.99 194.67 -182.98 194.34 -184 194 C-195.25349437 182.00693318 -201.96525702 166.7992041 -206 151 C-206.22429687 150.1646875 -206.44859375 149.329375 -206.6796875 148.46875 C-208.36587172 141.3544385 -208.1886952 134.27524821 -208 127 C-203.36187638 128.50772823 -198.87269885 130.23790468 -194.3671875 132.09765625 C-183.05350495 136.41029762 -170.94982466 134.29316896 -160 130 C-159.26265625 129.72285156 -158.5253125 129.44570313 -157.765625 129.16015625 C-146.29852755 124.18343596 -137.54571835 113.36429587 -133 102 C-129.37 102 -125.74 102 -122 102 C-121.5978125 103.21623047 -121.5978125 103.21623047 -121.1875 104.45703125 C-115.70522438 119.94806664 -107.18596225 129.8001875 -92.45703125 136.95703125 C-79.77675877 142.33959525 -65.08836932 141.53714384 -52.33984375 136.609375 C-38.80740413 130.08848012 -30.50247217 119.80628678 -25.41796875 105.8984375 C-23.74338127 100.77727878 -23.50040555 95.98272408 -23.5625 90.625 C-23.57494751 89.23692139 -23.57494751 89.23692139 -23.58764648 87.82080078 C-23.75894371 80.89454083 -24.6329151 75.14642421 -28 69 C-28.49757813 68.07058594 -28.99515625 67.14117187 -29.5078125 66.18359375 C-36.96253476 53.44121965 -47.87218096 46.09556352 -62 42.125 C-75.33314815 39.22950489 -88.09452557 41.35440932 -99.8203125 48.484375 C-110.37282998 55.8219678 -118.59547756 65.58703316 -121.5 78.375 C-121.665 79.57125 -121.83 80.7675 -122 82 C-124.64 82 -127.28 82 -130 82 C-130.06316406 81.22398437 -130.12632812 80.44796875 -130.19140625 79.6484375 C-131.79181127 65.53118054 -138.02815416 53.23273804 -149.15625 44.26171875 C-158.75209901 37.4533963 -168.42030024 35.26809392 -180 34 C-178.63958782 30.84384373 -177.23946428 29.06582553 -174.5 27 C-173.8915625 26.525625 -173.283125 26.05125 -172.65625 25.5625 C-163.98928021 20.46428248 -156.55011934 19.41309071 -146.5625 19.625 C-144.83676758 19.62693359 -144.83676758 19.62693359 -143.07617188 19.62890625 C-133.10166438 19.73062927 -123.86117749 21.41304515 -114.25 23.9375 C-112.85721469 24.28693019 -111.46397397 24.63454954 -110.0703125 24.98046875 C-107.55698284 25.60496807 -105.05620576 26.25360458 -102.5546875 26.92578125 C-86.6473798 30.74860804 -67.94193142 30.82693827 -52 27 C-50.90558594 26.74347656 -49.81117188 26.48695313 -48.68359375 26.22265625 C-30.05254815 21.37233935 -14.58808736 12.43353907 0 0 Z " fill="#FEFEFE" transform="translate(539,398)"/>
<path d="M0 0 C0.2019397 0.8206897 0.2019397 0.8206897 0.40795898 1.65795898 C4.77933481 19.03640078 10.71147729 34.59939379 23 48 C23.50015625 48.57234375 24.0003125 49.1446875 24.515625 49.734375 C26.10754276 51.33129878 26.10754276 51.33129878 29.375 51.375 C37.60605586 50.52351146 41.98868202 43.98011408 47 38 C48.67834755 35.82617355 50.3142745 33.63604751 51.90625 31.3984375 C52.44765625 30.70621094 52.44765625 30.70621094 53 30 C53.33 30 53.66 30 54 30 C53.45171303 48.97736187 52.43679274 67.87737463 51.0625 86.8125 C50.71836341 91.6313908 50.37667648 96.45045439 50.03515625 101.26953125 C49.94960983 102.47355087 49.86406342 103.6775705 49.77592468 104.91807556 C48.14148286 128.02461132 46.74073337 151.14277636 45.43304539 174.26959133 C44.16557288 196.68024125 42.86560937 219.08350843 41.1902771 241.46813965 C40.15036935 255.36920036 39.33109762 269.27421052 38.64599609 283.19726562 C38.6092981 283.92622543 38.5726001 284.65518524 38.53479004 285.40623474 C38.43722529 287.35346455 38.34321944 289.30087178 38.24951172 291.24829102 C37.9660949 295.50980399 37.47164499 299.75519506 37 304 C-13.49 304 -63.98 304 -116 304 C-115.32431645 295.89179746 -114.5283274 287.96097885 -113.3125 279.9375 C-113.13807373 278.7817749 -112.96364746 277.6260498 -112.78393555 276.43530273 C-105.70233432 230.1617037 -97.77655801 183.10616164 -83.72949219 138.38623047 C-82.69306178 134.99597921 -81.75111716 131.58142336 -80.80419922 128.1652832 C-72.82742201 99.50087347 -40.03574974 0 0 0 Z " fill="#FEFEFE" transform="translate(399,720)"/>
<path d="M0 0 C9.43314852 3.1780126 18.14515108 12.68407443 22.8125 21.375 C24.82524697 24.35721865 24.82524697 24.35721865 28.546875 24.6640625 C36.14808171 25.30633205 43.81573495 25.06673911 51.4375 25 C54.51952744 24.97343898 57.60149544 24.95347658 60.68359375 24.9375 C61.38874619 24.92920166 62.09389862 24.92090332 62.82041931 24.91235352 C67.77447156 24.88723578 67.77447156 24.88723578 70 26 C74.56790564 26.63950679 77.96882416 26.60151924 82 24.25 C85.7571001 20.60738218 88.67922118 16.15982757 91.76171875 11.953125 C95.90618544 6.48503282 99.45863517 2.33620173 106 0 C106.81832722 1.89332534 107.62942268 3.78977733 108.4375 5.6875 C108.88996094 6.74324219 109.34242188 7.79898438 109.80859375 8.88671875 C111.64102815 13.67508011 112.10954851 17.8611647 112.0703125 22.97265625 C111.70684647 39.06817365 111.70684647 39.06817365 118.14453125 53.25390625 C124.12846338 62.1101258 126.49798917 74.10486037 124.5234375 84.51171875 C121.95374385 94.62021246 115.77930365 103.34420972 107 109 C97.51651471 113.63395151 87.36726404 117.16071198 77.21484375 120.015625 C74.4742666 121.23365929 73.44645652 122.38781372 72 125 C71.70312378 127.03637938 71.70312378 127.03637938 72.0625 129.0625 C72.13597656 129.73410156 72.20945312 130.40570313 72.28515625 131.09765625 C73.28302479 133.7531862 74.58995648 134.54207244 77 136 C84.46532774 136.61898823 91.5553052 134.12567213 98.375 131.375 C99.73854614 130.83649414 99.73854614 130.83649414 101.12963867 130.28710938 C118.62087603 123.24153148 131.10796187 114.57654896 139 97 C144.28678655 82.05466109 142.24106889 67.7490744 138 53 C152.79624985 43.88311878 168.83071138 41.30097986 185.98828125 44.66015625 C205.3822713 50.02543973 217.43629967 65.48055857 227.23779297 82.09863281 C237.18014764 99.94432414 242.98774222 119.31986202 239.31640625 139.81640625 C234.68841923 155.77432001 226.5422844 165.56143589 212.5390625 174.140625 C204.22519142 178.50861908 196.34331577 180.78855098 187.0625 182.125 C185.40093872 182.3720166 185.40093872 182.3720166 183.70581055 182.62402344 C181.48005279 182.94899855 179.25324639 183.2668823 177.02539062 183.57714844 C174.50776775 183.92903052 171.99669389 184.30817965 169.484375 184.6953125 C158.06909628 186.29825234 146.5667463 186.20886141 135.0625 186.25 C133.7719017 186.2580365 133.7719017 186.2580365 132.45523071 186.26623535 C129.98170024 186.27792341 127.5086897 186.27449412 125.03515625 186.265625 C123.90977448 186.27154663 123.90977448 186.27154663 122.76165771 186.27758789 C119.02170595 186.24443668 116.1747344 186.0844059 113 184 C113.41804827 178.66988461 114.09222271 175.71715401 118 172 C125.64415637 166.03088449 131.97778613 165.16105579 141.5 165.5 C143.23830078 165.51546875 143.23830078 165.51546875 145.01171875 165.53125 C151.11635843 165.64161637 156.86194594 166.14202237 162.80493164 167.56176758 C167.60437081 168.51994724 172.36169738 168.54610087 177 167 C177.10815225 165.23050905 177.18566083 163.45912513 177.25 161.6875 C177.29640625 160.70136719 177.3428125 159.71523438 177.390625 158.69921875 C177.25912499 155.91064047 177.25912499 155.91064047 175.2421875 154.21484375 C173.08340989 153.04519247 171.24953561 152.44380511 168.875 151.875 C166.35765226 150.97193659 165.29118371 150.55751027 164.0390625 148.16015625 C163.455021 145.75204312 163.17545442 143.47161877 163 141 C162.88011719 139.74703125 162.88011719 139.74703125 162.7578125 138.46875 C162.44130832 132.43655273 163.49968461 127.96071188 167 123 C170.81373667 119.07069556 175.86753077 116.80658469 180.671875 114.26953125 C182.89442134 113.1996717 182.89442134 113.1996717 184 112 C184.25592244 108.09718284 184.43499236 105.15997964 183.0625 101.5 C180.19142675 99.41194673 178.02350982 99.38126648 174.5234375 99.5625 C165.48377061 101.12974875 157.95079387 107.30008137 152 114 C148.51160836 119.52862069 145.8602826 125.06436789 145.90234375 131.66796875 C145.90556641 132.56064453 145.90878906 133.45332031 145.91210938 134.37304688 C145.92048828 135.30181641 145.92886719 136.23058594 145.9375 137.1875 C145.94426758 138.59805664 145.94426758 138.59805664 145.95117188 140.03710938 C145.96295374 142.35813712 145.97940442 144.67903644 146 147 C144.61941406 147.03867187 144.61941406 147.03867187 143.2109375 147.078125 C129.80423984 147.67883243 116.40537193 149.79156503 106 159 C101.62699952 163.92858661 97.57286473 169.41556292 95.87890625 175.84375 C95.44384766 177.40609375 95.44384766 177.40609375 95 179 C91.86321277 180.56839362 88.50744519 180.1840527 85.0625 180.203125 C83.87043945 180.21167511 83.87043945 180.21167511 82.65429688 180.22039795 C80.96632215 180.22985728 79.27832888 180.23638563 77.59033203 180.24023438 C75.03774395 180.2498577 72.4859899 180.28083624 69.93359375 180.3125 C51.05295425 180.43600889 51.05295425 180.43600889 42.875 174.875 C40.27887443 170.89427413 40.54694119 167.62119982 41 163 C50.37501064 157.76743592 60.82189978 159.82716562 70.98046875 161.546875 C76.5705209 162.3857444 81.99589098 163.05627303 87 160 C88.61348812 156.77302376 88.57470554 153.48977822 88 150 C84.66240826 145.62660393 80.12740481 145.15368196 74.9609375 144.37109375 C56.01491969 141.70595298 56.01491969 141.70595298 37.796875 146.1171875 C35.31391651 147.34080373 33.78595181 147.99108495 31 148 C25.70906818 145.08312041 21.2715985 141.2715985 17 137 C17.94875 136.566875 18.8975 136.13375 19.875 135.6875 C23.20041937 134.20697799 23.20041937 134.20697799 25 131 C25.32986257 127.89929186 25.40417344 125.80210481 23.98828125 122.9921875 C21.10728866 120.1055348 17.67646666 119.24612179 13.875 118.0625 C1.78805294 114.00905868 -9.16547069 108.6224571 -16.5859375 97.65625 C-20.86532653 88.55116696 -20.31817848 77.6771478 -17 68.375 C-13.62428147 60.57526288 -9.19283997 53.0094923 -3.8972168 46.359375 C-1.47901151 42.07749304 -1.51458807 39.08909961 -1.6796875 34.27734375 C-1.69009064 33.4542421 -1.70049377 32.63114044 -1.71121216 31.78309631 C-1.74666052 29.16715881 -1.80895997 26.55282966 -1.875 23.9375 C-1.93039505 21.31875899 -1.97980981 18.7002513 -2.0173645 16.08119202 C-2.04171133 14.45601623 -2.07675327 12.83095508 -2.12399292 11.20628357 C-2.19816209 6.9983986 -1.9178407 3.77789248 0 0 Z " fill="#F8D67F" transform="translate(423,143)"/>
<path d="M0 0 C9.43314852 3.1780126 18.14515108 12.68407443 22.8125 21.375 C24.82524697 24.35721865 24.82524697 24.35721865 28.546875 24.6640625 C36.14808171 25.30633205 43.81573495 25.06673911 51.4375 25 C54.51952744 24.97343898 57.60149544 24.95347658 60.68359375 24.9375 C61.38874619 24.92920166 62.09389862 24.92090332 62.82041931 24.91235352 C67.77447156 24.88723578 67.77447156 24.88723578 70 26 C74.56790564 26.63950679 77.96882416 26.60151924 82 24.25 C85.7571001 20.60738218 88.67922118 16.15982757 91.76171875 11.953125 C95.90618544 6.48503282 99.45863517 2.33620173 106 0 C106.81832722 1.89332534 107.62942268 3.78977733 108.4375 5.6875 C108.88996094 6.74324219 109.34242188 7.79898438 109.80859375 8.88671875 C111.64102815 13.67508011 112.10954851 17.8611647 112.0703125 22.97265625 C111.70684647 39.06817365 111.70684647 39.06817365 118.14453125 53.25390625 C124.12846338 62.1101258 126.49798917 74.10486037 124.5234375 84.51171875 C121.79442484 95.2469312 115.41472073 102.13732776 107 109 C106.67 108.34 106.34 107.68 106 107 C104.0063176 106.31467167 102.00523906 105.65073864 100 105 C89.98984848 99.77595218 80.96110148 91.96110148 73 84 C71.081875 83.62875 71.081875 83.62875 69.125 83.25 C65.7105046 82.45204727 65.08541242 82.0966509 62.625 79.3125 C61 76 61 76 60.25 72.75 C58.24212384 66.72637153 54.68920181 60.91646847 48.89453125 57.90625 C45.96865901 57.43725773 44.69800292 57.697226 42 59 C38.49068031 62.00895427 35.5464509 65.51036475 32.6015625 69.05859375 C30 72 30 72 27 73 C26.30741771 74.99117408 25.64252365 76.9921136 25 79 C22.87778056 81.62548749 21.11491223 82.45047234 17.88671875 83.28515625 C12.40566311 84.9901517 8.33838825 87.98424341 3.8125 91.4375 C2.27799439 92.58290343 0.74285158 93.72745376 -0.79296875 94.87109375 C-1.50888184 95.40847168 -2.22479492 95.94584961 -2.96240234 96.49951172 C-5.58395573 98.43002539 -8.26959599 100.22763249 -11 102 C-13.43766867 101.03210215 -14.77066266 100.33621987 -16.265625 98.14453125 C-20.3671203 88.42789357 -20.5454486 78.31427455 -17 68.375 C-13.62428147 60.57526288 -9.19283997 53.0094923 -3.8972168 46.359375 C-1.47901151 42.07749304 -1.51458807 39.08909961 -1.6796875 34.27734375 C-1.69009064 33.4542421 -1.70049377 32.63114044 -1.71121216 31.78309631 C-1.74666052 29.16715881 -1.80895997 26.55282966 -1.875 23.9375 C-1.93039505 21.31875899 -1.97980981 18.7002513 -2.0173645 16.08119202 C-2.04171133 14.45601623 -2.07675327 12.83095508 -2.12399292 11.20628357 C-2.19816209 6.9983986 -1.9178407 3.77789248 0 0 Z " fill="#F7D67F" transform="translate(423,143)"/>
<path d="M0 0 C5.46901262 0.806581 8.38295787 5.208926 11.50390625 9.40625 C13.56211775 12.74063857 14.75925793 15.80757805 15.78515625 19.5625 C16.68143555 22.41159975 17.94125649 23.74740034 20.375 25.4375 C21.40625 25.664375 22.4375 25.89125 23.5 26.125 C28.30027191 27.27910793 31.20451832 30.69493557 34.70703125 33.99609375 C42.12340543 40.78267334 50.45283297 45.88149981 59.375 50.4375 C58.375 53.4375 58.375 53.4375 56.27709961 54.55664062 C55.36968018 54.89888672 54.46226074 55.24113281 53.52734375 55.59375 C52.52896484 55.97660156 51.53058594 56.35945313 50.50195312 56.75390625 C48.92317383 57.33978516 48.92317383 57.33978516 47.3125 57.9375 C46.28705078 58.32808594 45.26160156 58.71867187 44.20507812 59.12109375 C36.43560376 62.07379226 36.43560376 62.07379226 32.91455078 63.28125 C28.40773039 64.81391855 28.40773039 64.81391855 25.375 68.4375 C25.19918818 70.39918115 25.19918818 70.39918115 25.5 72.4375 C25.56445312 73.118125 25.62890625 73.79875 25.6953125 74.5 C26.64493059 77.20695731 27.93872218 77.96747651 30.375 79.4375 C37.84112978 80.05655473 44.92929084 77.56205234 51.75 74.8125 C52.65613037 74.45639648 53.56226074 74.10029297 54.49584961 73.73339844 C66.98962705 69.02228973 66.98962705 69.02228973 77.46484375 61.171875 C79.375 59.4375 79.375 59.4375 81.1796875 59.4765625 C84.32417464 60.85297502 87.42913524 62.28023346 90.5 63.8125 C91.13292969 64.11671875 91.76585937 64.4209375 92.41796875 64.734375 C95.69840101 66.36414389 97.30125163 67.32687744 99.375 70.4375 C99.60205078 72.61401367 99.60205078 72.61401367 99.5703125 75.10546875 C99.56064453 76.44448242 99.56064453 76.44448242 99.55078125 77.81054688 C99.52564453 79.20370117 99.52564453 79.20370117 99.5 80.625 C99.49097656 81.56537109 99.48195313 82.50574219 99.47265625 83.47460938 C99.44909056 85.79582968 99.41619116 88.11653644 99.375 90.4375 C98.45460938 90.46328125 97.53421875 90.4890625 96.5859375 90.515625 C83.17923984 91.11633243 69.78037193 93.22906503 59.375 102.4375 C55.00199952 107.36608661 50.94786473 112.85306292 49.25390625 119.28125 C48.81884766 120.84359375 48.81884766 120.84359375 48.375 122.4375 C45.23821277 124.00589362 41.88244519 123.6215527 38.4375 123.640625 C37.24543945 123.64917511 37.24543945 123.64917511 36.02929688 123.65789795 C34.34132215 123.66735728 32.65332888 123.67388563 30.96533203 123.67773438 C28.41274395 123.6873577 25.8609899 123.71833624 23.30859375 123.75 C4.42795425 123.87350889 4.42795425 123.87350889 -3.75 118.3125 C-6.34612557 114.33177413 -6.07805881 111.05869982 -5.625 106.4375 C3.75001064 101.20493592 14.19689978 103.26466562 24.35546875 104.984375 C29.9455209 105.8232444 35.37089098 106.49377303 40.375 103.4375 C41.98848812 100.21052376 41.94970554 96.92727822 41.375 93.4375 C38.03740826 89.06410393 33.50240481 88.59118196 28.3359375 87.80859375 C9.38991969 85.14345298 9.38991969 85.14345298 -8.828125 89.5546875 C-11.31108349 90.77830373 -12.83904819 91.42858495 -15.625 91.4375 C-20.91593182 88.52062041 -25.3534015 84.7090985 -29.625 80.4375 C-28.67625 80.004375 -27.7275 79.57125 -26.75 79.125 C-23.42458063 77.64447799 -23.42458063 77.64447799 -21.625 74.4375 C-21.29513743 71.33679186 -21.22082656 69.23960481 -22.63671875 66.4296875 C-25.51746722 63.54327941 -28.94844849 62.68280472 -32.75 61.5 C-43.02871344 58.07232365 -50.69620256 53.93421038 -58.625 46.4375 C-54.29101286 41.67458217 -49.28042863 38.30524188 -43.9375 34.75 C-42.22399705 33.60214412 -40.51169826 32.45248803 -38.80078125 31.30078125 C-38.04708252 30.79844971 -37.29338379 30.29611816 -36.5168457 29.77856445 C-34.51370996 28.43817471 -34.51370996 28.43817471 -32.625 26.4375 C-30.2421875 25.8046875 -30.2421875 25.8046875 -27.5 25.3125 C-26.58992188 25.14492187 -25.67984375 24.97734375 -24.7421875 24.8046875 C-24.04351562 24.68351562 -23.34484375 24.56234375 -22.625 24.4375 C-22.398125 23.550625 -22.17125 22.66375 -21.9375 21.75 C-20.41681631 17.91208403 -18.56311725 16.31292627 -15.625 13.4375 C-14.75324582 12.41011656 -13.89401387 11.37199154 -13.046875 10.32421875 C-5.05978921 0.62137762 -5.05978921 0.62137762 0 0 Z " fill="#FDFEFD" transform="translate(469.625,199.5625)"/>
<path d="M0 0 C-2.61123323 20.61207504 -7.65140307 50.46220467 -24.625 64.0625 C-45.34146674 77.92071099 -73.76582389 89.33044204 -98 95 C-98.94381795 90.71776975 -99.88568408 86.43511571 -100.82592773 82.15209961 C-101.14443319 80.7024443 -101.46342467 79.25289567 -101.78295898 77.8034668 C-103.96802729 67.88979471 -106.04669277 57.96213855 -108 48 C-106.90836548 47.49569458 -106.90836548 47.49569458 -105.79467773 46.98120117 C-77.24549182 33.80781469 -77.24549182 33.80781469 -49 20 C-9.17214397 0 -9.17214397 0 0 0 Z " fill="#FEFEFD" transform="translate(589,669)"/>
<path d="M0 0 C4.26483657 2.49452705 4.26483657 2.49452705 6 5 C7.02821074 11.11942291 5.53242027 17.43997134 4.20703125 23.40625 C4.020802 24.28008835 3.83457275 25.1539267 3.6427002 26.054245 C3.24567932 27.9121368 2.84455563 29.76915599 2.43960571 31.62533569 C1.80393081 34.53928133 1.17913572 37.4553707 0.55737305 40.37231445 C-0.26079533 44.2093185 -1.08216677 48.04560983 -1.90625 51.88134766 C-4.05288206 61.897971 -6.05036485 71.94332777 -8 82 C-8.23283691 83.19463867 -8.46567383 84.38927734 -8.70556641 85.62011719 C-12.59926386 105.68315866 -15.97042771 125.78870775 -19 146 C-19.15065918 147.00047363 -19.30131836 148.00094727 -19.45654297 149.03173828 C-19.96371698 152.40035341 -20.46993521 155.76909796 -20.97070312 159.13867188 C-22.25442838 167.76857054 -23.62919883 176.3835355 -25 185 C-31.27 185 -37.54 185 -44 185 C-41.23486102 160.5451893 -41.23486102 160.5451893 -39.11694336 149.27392578 C-38.3001501 144.8693929 -37.64386504 140.46914089 -37.07910156 136.02539062 C-32.56561606 100.53359067 -25.56357256 65.07242032 -17.49902344 30.22265625 C-16.90126407 27.56022902 -16.34573103 24.89006417 -15.7890625 22.21875 C-15.35942453 20.20832275 -14.92973757 18.19790596 -14.5 16.1875 C-14.31034668 15.24865967 -14.12069336 14.30981934 -13.92529297 13.3425293 C-12.83541062 8.33007708 -11.85186382 4.6518632 -8 1 C-4.88155225 -0.03948258 -3.23905421 -0.45196105 0 0 Z " fill="#8DC64D" transform="translate(355,839)"/>
<path d="M0 0 C1.09828125 -0.00580078 1.09828125 -0.00580078 2.21875 -0.01171875 C5.80712358 1.08814233 7.27126017 2.68607859 9.5 5.6875 C10.13826876 8.70942211 10.01560831 11.61351145 9.875 14.6875 C9.85373047 15.82058594 9.85373047 15.82058594 9.83203125 16.9765625 C9.7299891 21.2623326 9.51192045 25.54062298 9.25798035 29.81974792 C8.39851793 44.90236413 8.36718553 59.96456619 8.39860606 75.06755471 C8.40496611 78.65491297 8.40545319 82.24227259 8.40663147 85.82963562 C8.40970823 92.58631079 8.41787097 99.34296929 8.42798096 106.09963721 C8.43925737 113.80735128 8.44468124 121.51506625 8.44967639 129.22278655 C8.46005776 145.04436754 8.47779192 160.86593094 8.5 176.6875 C2.23 176.6875 -4.04 176.6875 -10.5 176.6875 C-10.52341354 159.98547197 -10.54112719 143.28345099 -10.55181217 126.58141041 C-10.55691106 118.82176453 -10.56387012 111.06212937 -10.57543945 103.30249023 C-10.60242206 84.63938699 -10.59809734 65.97682526 -10.51566315 47.3138504 C-10.50560948 44.98621393 -10.49677022 42.65857171 -10.48946381 40.33092499 C-10.47129629 34.75309422 -10.43276221 29.17674013 -10.34213066 23.59958458 C-10.32018408 22.06968354 -10.30621183 20.53964218 -10.30116463 19.00959206 C-10.24909604 6.82186509 -10.24909604 6.82186509 -7.09204102 2.82421875 C-4.43480052 0.63375357 -3.3904545 -0.11341309 0 0 Z " fill="#8BC54B" transform="translate(619.5,847.3125)"/>
<path d="M0 0 C6.59164839 5.39118262 11.71979897 12.93686143 12.7578125 21.58203125 C13.10815277 30.75825137 10.43088176 38.82659428 4.859375 46.1796875 C-1.19363625 52.36957588 -7.67554589 55.57833701 -16.32324219 55.90649414 C-17.10860352 55.91414795 -17.89396484 55.92180176 -18.703125 55.9296875 C-19.82509277 55.9460022 -19.82509277 55.9460022 -20.96972656 55.96264648 C-28.85935605 55.76166452 -35.12460076 52.29530868 -40.9140625 47.07421875 C-47.23768222 40.08739014 -50.04700429 31.46623857 -49.8203125 22.171875 C-48.85933972 13.12887478 -44.20749622 6.26739174 -37.515625 0.3046875 C-25.74761517 -7.79185785 -12.03179152 -8.10838124 0 0 Z " fill="#FDFEFC" transform="translate(484.515625,463.6953125)"/>
<path d="M0 0 C7.72549981 4.63257484 11.7859008 9.98445052 15.46484375 18.078125 C17.52939705 27.02452262 16.41089203 35.17120519 12.21484375 43.328125 C7.56948352 50.23148311 1.61291558 54.55198061 -6.03515625 57.640625 C-16.72138653 59.59976722 -24.66874621 58.528867 -33.78515625 52.328125 C-36.55792987 49.90007459 -38.69786606 47.35731216 -40.78515625 44.328125 C-41.21699219 43.76996094 -41.64882813 43.21179688 -42.09375 42.63671875 C-46.37250522 36.01871327 -45.81739398 26.89289973 -44.78515625 19.328125 C-42.2386057 10.44900186 -36.10268335 4.03187658 -28.28515625 -0.609375 C-19.49227579 -4.65731692 -8.68855865 -4.10574153 0 0 Z " fill="#FEFEFD" transform="translate(373.78515625,454.671875)"/>
<path d="M0 0 C5.36437897 4.16631322 6.24705308 8.33847059 7.46484375 14.6875 C7.76283623 16.12325378 7.76283623 16.12325378 8.06684875 17.5880127 C8.71068185 20.72161631 9.32530349 23.86007414 9.9375 27 C10.37729342 29.19348704 10.81772951 31.38684532 11.25878906 33.58007812 C16.70087017 60.88921135 20.88871635 88.25171244 24.375 115.875 C24.50878052 116.93195068 24.64256104 117.98890137 24.78039551 119.07788086 C25.15891949 122.09029601 25.53026053 125.10349191 25.8984375 128.1171875 C26.01059601 129.01343842 26.12275452 129.90968933 26.23831177 130.83309937 C26.33933197 131.67563263 26.44035217 132.51816589 26.54443359 133.38623047 C26.67717178 134.47458694 26.67717178 134.47458694 26.81259155 135.58493042 C27.05544493 138.7145001 27 141.8610218 27 145 C20.73 145 14.46 145 8 145 C6.3561854 133.88468221 4.84036743 122.7945189 3.625 111.625 C2.09972713 97.85936076 -0.092826 84.2238177 -2.39892578 70.57226562 C-2.93287655 67.39892378 -3.451847 64.22365485 -3.96484375 61.046875 C-6.08263247 48.16790948 -8.79196511 35.45170901 -11.71435547 22.73461914 C-11.94060104 21.73418076 -11.94060104 21.73418076 -12.17141724 20.71353149 C-12.58332022 18.89253054 -13.00188556 17.07304023 -13.42089844 15.25366211 C-14.84287829 7.26431744 -14.84287829 7.26431744 -12.125 3.1875 C-8.69951243 -0.3387372 -4.78153899 -1.15446167 0 0 Z " fill="#8EC64F" transform="translate(747,879)"/>
<path d="M0 0 C1.78361938 0.03710083 1.78361938 0.03710083 3.60327148 0.07495117 C26.67696767 0.8238219 26.67696767 0.8238219 34.51733398 8.74291992 C39.875 14.6902086 39.875 14.6902086 39.875 17.625 C24.38620869 20.01637101 9.14706783 20.93452619 -6.5 20.9375 C-7.34572571 20.94072266 -8.19145142 20.94394531 -9.06280518 20.94726562 C-11.48742995 20.95291702 -13.91137541 20.94273367 -16.3359375 20.92578125 C-17.42814606 20.92696709 -17.42814606 20.92696709 -18.54241943 20.92817688 C-22.22437809 20.87702488 -24.9946819 20.65480775 -28.125 18.625 C-27.70695173 13.29488461 -27.03277729 10.34215401 -23.125 6.625 C-15.6025098 0.80680221 -9.36757767 -0.29308828 0 0 Z " fill="#FCFDFB" transform="translate(564.125,308.375)"/>
<path d="M0 0 C0.10957031 0.72445312 0.21914063 1.44890625 0.33203125 2.1953125 C1.61074023 9.9923185 2.67505191 15.42462058 9.1875 20.375 C10.449915 21.26210243 11.718079 22.14132608 13 23 C12.44165102 27.71894941 10.32305216 31.27975192 7.875 35.25 C7.47337646 35.9109668 7.07175293 36.57193359 6.65795898 37.25292969 C3.84258986 41.81598089 0.8123704 46.11540632 -2.58984375 50.265625 C-4.17244292 52.15627665 -4.17244292 52.15627665 -6 55 C-9.54413452 53.81862183 -9.97686722 52.66244092 -11.60083008 49.44238281 C-12.04591919 48.51184082 -12.04591919 48.51184082 -12.5 47.5625 C-12.80897217 46.92795898 -13.11794434 46.29341797 -13.4362793 45.63964844 C-15.85551359 40.55315211 -17.71112803 35.4913207 -19 30 C-19.20367187 29.16855469 -19.40734375 28.33710937 -19.6171875 27.48046875 C-20.87229166 21.88407967 -21.18482713 16.72964099 -21 11 C-18.79283537 9.72710095 -16.58432515 8.4566395 -14.375 7.1875 C-13.75753906 6.83107422 -13.14007813 6.47464844 -12.50390625 6.10742188 C-1.85794151 0 -1.85794151 0 0 0 Z " fill="#FCFDFB" transform="translate(437,693)"/>
<path d="M0 0 C2.375 0.625 2.375 0.625 5 2 C12.48108634 20.22178887 10.94678005 47.42666675 4.0625 65.60546875 C-0.55092712 76.00264089 -5.24934886 85.52173671 -13 94 C-13.52851562 94.6084375 -14.05703125 95.216875 -14.6015625 95.84375 C-25.75670135 107.93306303 -43.15505474 117.26825991 -59.125 120.625 C-60.34445312 120.88539063 -61.56390625 121.14578125 -62.8203125 121.4140625 C-66 122 -66 122 -69 122 C-69.07421875 119.7109375 -69.07421875 119.7109375 -68 117 C-65.10422022 115.40148384 -61.97262988 114.56486128 -58.8125 113.625 C-46.877296 109.76529874 -35.64661492 105.25734584 -26 97 C-25.18917969 96.33226562 -24.37835937 95.66453125 -23.54296875 94.9765625 C-17.61736682 89.91270478 -13.03953721 84.66368671 -9 78 C-8.52691406 77.22011719 -8.05382812 76.44023437 -7.56640625 75.63671875 C0.8069658 60.45532314 -0.66310332 43.43960561 -0.875 26.6875 C-0.91006314 23.01139364 -0.94077213 19.33531848 -0.96633911 15.65913391 C-0.98333377 13.38432794 -1.00648996 11.10955816 -1.03634644 8.83488464 C-1.04610504 7.819048 -1.05586365 6.80321136 -1.06591797 5.7565918 C-1.07718719 4.85949997 -1.08845642 3.96240814 -1.10006714 3.03813171 C-1 1 -1 1 0 0 Z " fill="#F4D57C" transform="translate(749,161)"/>
<path d="M0 0 C5.55018474 4.52237275 9.05289499 11.97148388 10 19 C10.57951676 28.49873255 10.67498496 37.71572957 7.671875 46.82421875 C6.81055341 49.61349856 6.69528357 52.10519395 7 55 C8.09631369 56.32131818 8.09631369 56.32131818 10.8125 56.125 C13.42835942 56.02241728 15.5193362 55.76328117 18 55 C17.278125 55.70125 16.55625 56.4025 15.8125 57.125 C10.05046736 62.95195695 6.45228673 68.5665656 3 76 C0.39202649 74.73652837 -2.21123407 73.46464776 -4.8125 72.1875 C-5.55048828 71.83107422 -6.28847656 71.47464844 -7.04882812 71.10742188 C-7.76103516 70.75615234 -8.47324219 70.40488281 -9.20703125 70.04296875 C-10.18893433 69.56380005 -10.18893433 69.56380005 -11.19067383 69.07495117 C-13.11617064 67.93098106 -14.48835511 66.64255865 -16 65 C-15.56429687 64.48953125 -15.12859375 63.9790625 -14.6796875 63.453125 C-3.85110443 50.2338158 0.62245554 36.07351474 -1 19 C-2.01836212 13.58731861 -3.4789578 8.28969588 -5 3 C-3.35 2.01 -1.7 1.02 0 0 Z " fill="#F7D67F" transform="translate(566,193)"/>
<path d="M0 0 C3.65361496 0.15885282 5.52020823 0.60859093 8.375 2.9375 C10 5 10 5 10 7 C12.76804821 5.41825817 15.121422 3.8907202 17.5 1.75 C20 0 20 0 22.625 -0.0625 C25.7852714 1.35130563 26.33363632 2.99047165 28 6 C28.52980469 6.94617188 29.05960937 7.89234375 29.60546875 8.8671875 C34.84224599 18.82352941 34.84224599 18.82352941 34 25 C31.29120665 26.35439668 28.99066732 26.06501451 26 26 C25.16151196 24.54462432 24.32936066 23.08559627 23.5 21.625 C23.0359375 20.81289062 22.571875 20.00078125 22.09375 19.1640625 C21 17 21 17 21 15 C20.32904297 15.54140625 20.32904297 15.54140625 19.64453125 16.09375 C16.98758779 18.13319488 14.75165596 19.79329461 11.5 20.6875 C7.51938562 19.59283104 4.92030313 16.82772868 2 14 C1.773125 14.70125 1.54625 15.4025 1.3125 16.125 C-0.38108523 19.83475812 -2.10145215 22.10145215 -5 25 C-8.05069525 25.65372041 -9.25518039 25.47171908 -11.875 23.8125 C-13 22 -13 22 -12.87890625 19.8671875 C-11.64539978 15.84321527 -9.44223869 12.75360881 -7.0625 9.3125 C-6.60681641 8.63638672 -6.15113281 7.96027344 -5.68164062 7.26367188 C-3.8980335 4.63918409 -2.24969744 2.24969744 0 0 Z " fill="#FDB94E" transform="translate(457,175)"/>
<path d="M0 0 C10.22473409 12.34019632 12.12968159 25.82148136 10.6796875 41.453125 C8.7925 56.2075 8.7925 56.2075 4 61 C1.0625 61.1875 1.0625 61.1875 -2 61 C-4 59 -4 59 -4.046875 57.1171875 C-3.94890625 56.37726563 -3.8509375 55.63734375 -3.75 54.875 C-3.66234375 54.15054688 -3.5746875 53.42609375 -3.484375 52.6796875 C-3 50 -3 50 -1.97265625 46.28125 C-0.80822056 41.71225672 -0.65483968 37.32335282 -0.6875 32.625 C-0.69241455 31.78791504 -0.6973291 30.95083008 -0.70239258 30.08837891 C-0.89559516 19.90115329 -3.80985001 12.69700809 -9 4 C-6.03 2.68 -3.06 1.36 0 0 Z " fill="#FDBA4E" transform="translate(576,189)"/>
<path d="M0 0 C17.42507305 1.07231219 39.18891114 6.88113119 53 18 C55 21 55 21 54.75 23.5625 C54 26 54 26 52 28 C49.21177282 28.33947571 47.61479383 28.39233553 45.21875 26.86328125 C44.6515625 26.35152344 44.084375 25.83976562 43.5 25.3125 C33.86664075 17.69875039 20.82546884 15.4811708 9.14941406 12.55322266 C6.08081824 11.76341823 3.04147799 10.88811157 0 10 C0 6.7 0 3.4 0 0 Z " fill="#FDB94E" transform="translate(586,274)"/>
<path d="M0 0 C5.67333333 2.67333333 5.67333333 2.67333333 7 4 C7.04080783 5.99958364 7.04254356 8.00045254 7 10 C3.33590754 11.63846095 1.4792872 12.11403915 -2.48046875 11.171875 C-3.70378906 10.70265625 -4.92710937 10.2334375 -6.1875 9.75 C-7.52156915 9.26694404 -8.85753294 8.78908945 -10.1953125 8.31640625 C-10.84532227 8.0858252 -11.49533203 7.85524414 -12.16503906 7.61767578 C-24.95189634 3.313425 -38.81014066 4.77303634 -52 6 C-50.09676048 2.46033024 -48.54973307 0.32719703 -45.0625 -1.6875 C-44.39347656 -2.08324219 -43.72445312 -2.47898437 -43.03515625 -2.88671875 C-42.36355469 -3.25410156 -41.69195313 -3.62148438 -41 -4 C-40.071875 -4.55880859 -40.071875 -4.55880859 -39.125 -5.12890625 C-27.72429523 -9.80235692 -10.89562429 -3.93025729 0 0 Z " fill="#FCB94E" transform="translate(640,264)"/>
<path d="M0 0 C3.96 0 7.92 0 12 0 C19.78377873 14.35674743 23.67500435 29.59012797 20.1875 45.875 C19 49 19 49 16 51 C11.45945946 50.45945946 11.45945946 50.45945946 10 49 C9.89032849 47.22637958 9.84409231 45.44877181 9.82421875 43.671875 C9.50785863 26.9972631 7.96794774 14.82923608 0 0 Z " fill="#FDBA4F" transform="translate(587,187)"/>
<path d="M0 0 C1.6975594 0.58353604 3.35544725 1.28050817 5 2 C5.65097656 2.22558594 6.30195312 2.45117188 6.97265625 2.68359375 C11.05275638 4.5215454 12.67159406 6.20505638 14.40234375 10.39453125 C17.50730486 20.90001915 19.05324802 32.60783779 15 43 C14 44 14 44 11.0625 44.1875 C8 44 8 44 6 42 C5.74462891 40.11499023 5.74462891 40.11499023 5.7265625 37.80859375 C5.70851563 36.95386475 5.69046875 36.09913574 5.671875 35.21850586 C5.65640625 34.30077393 5.6409375 33.38304199 5.625 32.4375 C5.32456623 22.51721112 3.65086226 13.53205888 1 4 C0.66219763 2.66779189 0.32613434 1.33511246 0 0 Z " fill="#FDBA4E" transform="translate(616,191)"/>
<path d="M0 0 C0.495 4.95 0.495 4.95 1 10 C-3.20588488 10.70307196 -7.41497615 11.38469063 -11.625 12.0625 C-12.81480469 12.26166016 -14.00460937 12.46082031 -15.23046875 12.66601562 C-16.96103516 12.94155273 -16.96103516 12.94155273 -18.7265625 13.22265625 C-20.31331787 13.48187866 -20.31331787 13.48187866 -21.93212891 13.74633789 C-25.1564058 14.01293217 -27.84451129 13.66376925 -31 13 C-31.33 10.69 -31.66 8.38 -32 6 C-28.97905506 3.42586733 -26.64870957 2.4735131 -22.75390625 1.796875 C-21.75166016 1.6215625 -20.74941406 1.44625 -19.71679688 1.265625 C-18.67587891 1.09546875 -17.63496094 0.9253125 -16.5625 0.75 C-15.52544922 0.564375 -14.48839844 0.37875 -13.41992188 0.1875 C-8.5839826 -0.63246658 -4.81685653 -1.20652392 0 0 Z " fill="#FDBA4E" transform="translate(546,207)"/>
<path d="M0 0 C6.61342932 1.6857761 11.52186765 7.04131036 16.1875 11.8125 C15.5275 13.4625 14.8675 15.1125 14.1875 16.8125 C6.45888532 18.60985225 -2.86919881 17.81630142 -9.8125 13.8125 C-9.63765765 9.44144137 -9.06787922 6.59449449 -6.125 3.375 C-3.97775433 1.49234385 -2.80262778 0.80964802 0 0 Z " fill="#FBFDFA" transform="translate(428.8125,295.1875)"/>
<path d="M0 0 C5.29173647 0.13396801 10.39003646 1.19410399 15.5625 2.25 C16.52800781 2.44078125 17.49351562 2.6315625 18.48828125 2.828125 C20.84778478 3.29535342 23.20568339 3.76943436 25.5625 4.25 C24.50374926 7.65312738 23.55347846 10.26353231 21.5625 13.25 C14.08468102 14.01045617 1.82099652 13.44603187 -4.36328125 8.8046875 C-5.92361876 6.54645357 -5.78036781 4.92436889 -5.4375 2.25 C-3.4375 0.25 -3.4375 0.25 0 0 Z " fill="#FDB94E" transform="translate(519.4375,228.75)"/>
<path d="M0 0 C4.55571856 0.97622541 6.50183637 2.16682884 9.5 5.75 C10.23285112 8.89398723 10.20597441 11.60253075 9.5 14.75 C7.62379387 17.25160818 6.26108697 18.36945652 3.5 19.75 C-0.81147425 20.23809142 -2.79946463 20.25255798 -6.375 17.6875 C-8.98565258 14.07865673 -9.73098041 12.21562135 -9.5 7.75 C-7.21210598 3.35415869 -4.87650173 1.04496466 0 0 Z " fill="#8EC54C" transform="translate(439.5,206.25)"/>
<path d="M0 0 C3.4375 1.9375 3.4375 1.9375 6 5 C6.73285112 8.14398723 6.70597441 10.85253075 6 14 C4.12379387 16.50160818 2.76108697 17.61945652 0 19 C-4.2535161 19.48153012 -6.3220363 19.44716755 -9.9375 17.0625 C-12.34599732 13.48624641 -12.74203371 11.39468093 -12.48046875 7.16015625 C-11.00945838 0.54658932 -6.10817581 -1.07160979 0 0 Z " fill="#8DC54C" transform="translate(497,207)"/>
<path d="M0 0 C0.66 1.65 1.32 3.3 2 5 C-10.65980606 13.22887394 -24.40606648 21 -40 21 C-40.07421875 18.7109375 -40.07421875 18.7109375 -39 16 C-36.1042879 14.4015212 -32.97277334 13.56418506 -29.8125 12.625 C-21.72125624 10.02390715 -7.60695205 0 0 0 Z " fill="#F3D57C" transform="translate(720,262)"/>
<path d="M0 0 C2.375 0.625 2.375 0.625 5 2 C6.25 4.8125 6.25 4.8125 7 8 C7.20625 8.7425 7.4125 9.485 7.625 10.25 C8.2034505 14.4919703 8.07469494 18.72578968 8 23 C5.03 23.66 2.06 24.32 -1 25 C-1.02886984 21.02084841 -1.04675406 17.04172347 -1.0625 13.0625 C-1.07087891 11.92619141 -1.07925781 10.78988281 -1.08789062 9.61914062 C-1.09111328 8.53955078 -1.09433594 7.45996094 -1.09765625 6.34765625 C-1.10289307 5.34742432 -1.10812988 4.34719238 -1.11352539 3.31665039 C-1 1 -1 1 0 0 Z " fill="#FAB94D" transform="translate(749,161)"/>
<path d="M0 0 C4.66060703 0.55483417 9.54996614 1.54996614 13 5 C13.25 7.9375 13.25 7.9375 13 11 C10 13 10 13 6.625 12.75 C3.51359378 12.10626078 0.88077146 11.30944157 -2 10 C-1.54177532 6.53058454 -1.10868317 3.32604951 0 0 Z " fill="#FCBA4E" transform="translate(407,209)"/>
<path d="M0 0 C2 2 2 2 2.25 5 C2 8 2 8 0 10 C-2.1640625 10.6328125 -2.1640625 10.6328125 -4.625 11.125 C-5.44226563 11.29257813 -6.25953125 11.46015625 -7.1015625 11.6328125 C-8.04128906 11.81457031 -8.04128906 11.81457031 -9 12 C-10.31626692 8.38026598 -11 5.90432869 -11 2 C-7.36534398 -0.32617985 -4.23963281 -0.31404687 0 0 Z " fill="#FDB94E" transform="translate(415,227)"/>
<path d="M0 0 C2.31 0.33 4.62 0.66 7 1 C6.56699236 7.81987029 5.09212176 12.91643021 2 19 C0.0625 18.1875 0.0625 18.1875 -2 17 C-3.30211046 13.09366863 -2.47812346 10.80461827 -1.5625 6.8125 C-1.27503906 5.54019531 -0.98757813 4.26789063 -0.69140625 2.95703125 C-0.46324219 1.98121094 -0.23507812 1.00539062 0 0 Z " fill="#F4D57D" transform="translate(748,215)"/>
<path d="M0 0 C0 1.98 0 3.96 0 6 C-1.9363704 6.50435694 -3.87414146 7.00333874 -5.8125 7.5 C-6.89144531 7.7784375 -7.97039063 8.056875 -9.08203125 8.34375 C-12 9 -12 9 -15 9 C-14.67 7.35 -14.34 5.7 -14 4 C-12.0429132 3.32968281 -10.08428887 2.66385317 -8.125 2 C-7.03445313 1.62875 -5.94390625 1.2575 -4.8203125 0.875 C-2 0 -2 0 0 0 Z " fill="#EED57A" transform="translate(695,274)"/>
<path d="M0 0 C2.64 0.33 5.28 0.66 8 1 C7.67 4.3 7.34 7.6 7 11 C4.69 10.67 2.38 10.34 0 10 C0 6.7 0 3.4 0 0 Z " fill="#FBB94D" transform="translate(749,205)"/>
<path d="M0 0 C0 1.98 0 3.96 0 6 C-1.28913487 6.67154933 -2.58140204 7.33708859 -3.875 8 C-4.59429688 8.37125 -5.31359375 8.7425 -6.0546875 9.125 C-8 10 -8 10 -10 10 C-10 8.02 -10 6.04 -10 4 C-8.52184338 3.3310968 -7.04244528 2.66493641 -5.5625 2 C-4.73878906 1.62875 -3.91507813 1.2575 -3.06640625 0.875 C-1 0 -1 0 0 0 Z " fill="#F6BA4D" transform="translate(705,270)"/>
<path d="M0 0 C1.9375 0.8125 1.9375 0.8125 4 2 C5 5 5 5 4.22265625 7.04296875 C3.83980469 7.75066406 3.45695313 8.45835937 3.0625 9.1875 C2.68222656 9.90292969 2.30195312 10.61835938 1.91015625 11.35546875 C1.60980469 11.89816406 1.30945313 12.44085938 1 13 C-0.65 12.01 -2.3 11.02 -4 10 C-2.8905928 6.51329166 -1.73662334 3.22515763 0 0 Z " fill="#F8BA4D" transform="translate(744,231)"/>
<path d="M0 0 C1.5625 1.8125 1.5625 1.8125 3 4 C1.75651745 7.73044765 0.19286425 8.79540326 -3 11 C-3.99 11 -4.98 11 -6 11 C-6.33 9.35 -6.66 7.7 -7 6 C-4.69 4.02 -2.38 2.04 0 0 Z " fill="#F8BA4D" transform="translate(727,255)"/>
<path d="M0 0 C-1.3510265 3.01015294 -2.86335687 5.11967466 -5.1875 7.453125 C-5.80367188 8.071875 -6.41984375 8.690625 -7.0546875 9.328125 C-8.01761719 10.27945312 -8.01761719 10.27945312 -9 11.25 C-9.64195312 11.8996875 -10.28390625 12.549375 -10.9453125 13.21875 C-11.86957031 14.13914062 -11.86957031 14.13914062 -12.8125 15.078125 C-13.37582031 15.63918945 -13.93914062 16.20025391 -14.51953125 16.77832031 C-16 18 -16 18 -18 18 C-18 17.34 -18 16.68 -18 16 C-17.34 16 -16.68 16 -16 16 C-15.79375 15.46890625 -15.5875 14.9378125 -15.375 14.390625 C-13.42038808 10.99226564 -10.77876283 8.48944072 -8 5.75 C-7.4534375 5.19570313 -6.906875 4.64140625 -6.34375 4.0703125 C-2.2533867 0 -2.2533867 0 0 0 Z " fill="#B8D992" transform="translate(354,272)"/>
<path d="M0 0 C4.08378283 0.74250597 8.01939223 1.82923301 12 3 C12 3.33 12 3.66 12 4 C6.06 4.495 6.06 4.495 0 5 C0 3.35 0 1.7 0 0 Z " fill="#F1F8E9" transform="translate(419,274)"/>
<path d="M0 0 C0.66 0.33 1.32 0.66 2 1 C1.57847656 1.38671875 1.15695312 1.7734375 0.72265625 2.171875 C-0.09912109 2.95304688 -0.09912109 2.95304688 -0.9375 3.75 C-1.48277344 4.26046875 -2.02804687 4.7709375 -2.58984375 5.296875 C-4.16044692 7.19378076 -4.58731286 8.59701161 -5 11 C-5.66 10.67 -6.32 10.34 -7 10 C-4.14285714 2.42857143 -4.14285714 2.42857143 0 0 Z " fill="#B7D88F" transform="translate(404,688)"/>
</svg>
